<svg width="24" height="24" viewBox="0 0 24 24" fill="none" xmlns="http://www.w3.org/2000/svg">
<g clip-path="url(#clip0_71_2)">
<path fill-rule="evenodd" clip-rule="evenodd" d="M3.25 6C3.25 5.398 3.2575 4.86 3.2705 4.38C3.303 3.1685 3.743 2.133 4.493 1.3995C5.243 0.666 6.287 0.25 7.5 0.25C8.713 0.25 9.757 0.666 10.507 1.3995C11.257 2.133 11.697 3.1685 11.7295 4.3805C11.7425 4.8605 11.75 5.398 11.75 6C11.75 6.602 11.7425 7.14 11.7295 7.62C11.697 8.8315 11.257 9.867 10.507 10.6005C9.757 11.334 8.713 11.75 7.5 11.75C6.287 11.75 5.243 11.334 4.493 10.6005C3.743 9.867 3.303 8.8315 3.2705 7.6195C3.25638 7.07978 3.24954 6.5399 3.25 6ZM13.741 1.19C13.6141 1.22401 13.4952 1.28268 13.391 1.36265C13.2869 1.44262 13.1994 1.54232 13.1338 1.65608C13.0681 1.76983 13.0255 1.8954 13.0084 2.02561C12.9913 2.15583 13 2.28814 13.034 2.415C13.068 2.54186 13.1267 2.66077 13.2066 2.76496C13.2866 2.86914 13.3863 2.95655 13.5001 3.02221C13.6138 3.08786 13.7394 3.13046 13.8696 3.14758C13.9998 3.16471 14.1321 3.15601 14.259 3.122C14.8179 2.97217 15.4114 3.02086 15.9385 3.25974C16.4655 3.49863 16.8933 3.91293 17.149 4.432C16.664 4.577 16.31 4.697 16.054 4.792C15.9071 4.84385 15.7764 4.93357 15.6753 5.05209C15.5741 5.17062 15.5061 5.31374 15.478 5.467C15.424 5.769 15.533 6.075 15.761 6.291C16.851 7.324 17.7915 7.9015 18.384 8.2025C18.6568 8.34433 18.9728 8.37886 19.2698 8.29927C19.5668 8.21968 19.8232 8.03174 19.9885 7.7725C20.3505 7.216 20.8765 6.2455 21.304 4.806C21.3494 4.66072 21.3579 4.5064 21.3287 4.35702C21.2994 4.20764 21.2334 4.06791 21.1365 3.9505C21.0356 3.83189 20.9051 3.74201 20.7583 3.68995C20.6115 3.63789 20.4536 3.62549 20.3005 3.654C20.0185 3.702 19.6295 3.78 19.1005 3.907C18.6989 2.87343 17.9299 2.02451 16.9409 1.5231C15.9519 1.02168 14.8121 0.903061 13.741 1.19ZM3.619 11.494C2.6345 10.531 2.0855 9.212 2.024 7.75C1.062 7.7575 0.218996 8.569 0.425496 9.5765C1.0145 12.4585 3.0255 14.5055 5.8295 15.084C5.8535 15.48 5.8925 15.8845 5.9495 16.287C6.048 16.973 6.5965 17.492 7.304 17.503C7.43216 17.505 7.56034 17.505 7.6885 17.503C8.3955 17.492 8.945 16.973 9.0445 16.288C9.1015 15.8893 9.1415 15.4883 9.1645 15.085C11.972 14.5085 13.985 12.46 14.5745 9.5765C14.781 8.569 13.938 7.7575 12.976 7.75C12.9145 9.2125 12.3655 10.531 11.381 11.494C10.375 12.479 9.006 13 7.5 13C5.994 13 4.6255 12.479 3.619 11.494ZM11.51 22.306L11.533 22.2285L11.5995 22.0055C11.9562 20.8146 12.3203 19.6259 12.692 18.4395C13.369 16.2805 14.2205 13.6595 14.9145 11.8285C15.1225 11.2795 15.5255 10.761 16.1455 10.582C16.6655 10.4315 17.224 10.375 17.7185 10.375C18.1645 10.375 18.7555 10.4125 19.286 10.583C19.814 10.753 20.328 11.072 20.533 11.665C21.77 15.117 22.785 18.665 23.775 22.188C23.9245 22.719 23.8265 23.4375 23.189 23.694C22.5465 23.953 21.7055 24.001 21.077 23.781C20.672 23.6395 20.4465 23.275 20.3165 22.957C20.095 22.416 19.7245 21.492 19.5315 20.9005H15.824C15.6482 21.4882 15.4815 22.0786 15.324 22.6715C15.17 23.2465 14.726 23.7585 14.0885 23.8495C13.421 23.9445 12.667 23.9115 12.0705 23.5225L12.06 23.515C11.685 23.243 11.4995 22.853 11.4995 22.377C11.4995 22.353 11.5028 22.3293 11.5095 22.306M17.7505 14.191C17.5805 14.711 17.402 15.2275 17.2245 15.742L17.1685 15.9045C16.9435 16.5575 16.7205 17.2075 16.5165 17.863H18.8255C18.5989 17.0526 18.3639 16.2445 18.1205 15.439C17.9965 15.0243 17.8732 14.6083 17.7505 14.191Z" fill="black"/>
</g>
<defs>
<clipPath id="clip0_71_2">
<rect width="24" height="24" fill="white"/>
</clipPath>
</defs>
</svg>
