<svg width="24" height="24" viewBox="0 0 24 24" fill="none" xmlns="http://www.w3.org/2000/svg">
<path d="M14.1538 22.1539C13.8154 22.1539 13.5257 22.0334 13.2849 21.7926C13.0441 21.5518 12.9235 21.262 12.9231 20.9231V19.6923H11.6923C11.3538 19.6923 11.0642 19.5719 10.8234 19.3311C10.5826 19.0903 10.462 18.8004 10.4615 18.4616V16C10.4615 15.4769 10.641 15.0386 11 14.6849C11.359 14.3313 11.7949 14.1543 12.3077 14.1539H20.9231C21.4462 14.1539 21.8847 14.3309 22.2388 14.6849C22.5928 15.039 22.7696 15.4773 22.7692 16V18.4616C22.7692 18.8 22.6488 19.0899 22.408 19.3311C22.1672 19.5723 21.8773 19.6927 21.5385 19.6923H20.3077V20.9231C20.3077 21.2616 20.1873 21.5514 19.9465 21.7926C19.7056 22.0339 19.4158 22.1543 19.0769 22.1539H14.1538ZM20.3077 13.5385H12.9231V12.3077C12.9231 11.9692 13.0437 11.6796 13.2849 11.4388C13.5262 11.198 13.8158 11.0773 14.1538 11.0769H19.0769C19.4154 11.0769 19.7052 11.1976 19.9465 11.4388C20.1877 11.68 20.3081 11.9697 20.3077 12.3077V13.5385ZM20.3077 16.9231C20.4821 16.9231 20.6283 16.864 20.7465 16.7459C20.8646 16.6277 20.9235 16.4817 20.9231 16.3077C20.9227 16.1338 20.8636 15.9877 20.7458 15.8696C20.6281 15.7514 20.4821 15.6923 20.3077 15.6923C20.1333 15.6923 19.9873 15.7514 19.8695 15.8696C19.7518 15.9877 19.6927 16.1338 19.6923 16.3077C19.6919 16.4817 19.751 16.6279 19.8695 16.7465C19.9881 16.865 20.1342 16.9239 20.3077 16.9231ZM14.1538 20.9231H19.0769V18.4616H14.1538V20.9231Z" fill="black"/>
<path d="M11.7354 11.0831C11.8155 11.0944 11.8926 11.1214 11.9623 11.1626C12.0319 11.2037 12.0928 11.2582 12.1414 11.3229C12.19 11.3876 12.2253 11.4613 12.2454 11.5397C12.2655 11.618 12.2699 11.6996 12.2585 11.7797C12.1042 12.8468 11.6041 13.8338 10.8348 14.5893C10.0656 15.3447 9.0697 15.8269 7.99999 15.9619V16.6154C7.99999 16.7786 7.93516 16.9351 7.81975 17.0505C7.70435 17.166 7.54782 17.2308 7.38461 17.2308C7.2214 17.2308 7.06487 17.166 6.94947 17.0505C6.83406 16.9351 6.76923 16.7786 6.76923 16.6154V15.9619C5.69967 15.8267 4.70398 15.3444 3.93487 14.589C3.16576 13.8336 2.66569 12.8467 2.51138 11.7797C2.4882 11.6181 2.53016 11.454 2.62803 11.3233C2.72589 11.1927 2.87165 11.1063 3.03323 11.0831C3.1948 11.0599 3.35897 11.1019 3.48961 11.1997C3.62025 11.2976 3.70667 11.4434 3.72984 11.6049C3.85711 12.4835 4.29657 13.2867 4.96776 13.8677C5.63894 14.4486 6.49692 14.7684 7.38461 14.7684C8.2723 14.7684 9.13028 14.4486 9.80147 13.8677C10.4726 13.2867 10.9121 12.4835 11.0394 11.6049C11.0508 11.5249 11.078 11.448 11.1192 11.3784C11.1604 11.3089 11.2149 11.2482 11.2796 11.1997C11.3443 11.1513 11.4179 11.116 11.4962 11.096C11.5745 11.076 11.6554 11.0716 11.7354 11.0831ZM7.38461 4.9231C8.20066 4.9231 8.98329 5.24727 9.56032 5.82431C10.1374 6.40134 10.4615 7.18397 10.4615 8.00002V11.0769C10.4615 11.893 10.1374 12.6756 9.56032 13.2527C8.98329 13.8297 8.20066 14.1539 7.38461 14.1539C6.56856 14.1539 5.78593 13.8297 5.2089 13.2527C4.63186 12.6756 4.30769 11.893 4.30769 11.0769V8.00002C4.30769 7.18397 4.63186 6.40134 5.2089 5.82431C5.78593 5.24727 6.56856 4.9231 7.38461 4.9231Z" fill="black"/>
<g clip-path="url(#clip0_78_10)">
<path d="M14.4044 0.278269C12.2799 0.313365 8.81304 2.06442 9.72173 8.94173C9.72173 4.89031 12.003 2.872 13.2182 2.872C14.0205 2.872 14.5757 3.54402 14.6376 4.84796H13.857L13.9958 5.11117L16.2062 9.30892L16.3648 9.6106L16.5241 9.3089L18.7344 5.11121L18.8732 4.84798H17.7302C17.6612 2.01167 16.1754 0.293076 14.5048 0.278269C14.4718 0.277942 14.4382 0.277692 14.4044 0.278269ZM14.3161 1.13583C15.9614 1.11435 17.1271 2.59096 17.1755 5.20733H18.2777L16.3654 8.83956L14.4525 5.20731H15.7139C15.6693 2.511 14.5553 1.32577 12.4116 1.74096C13.0878 1.34004 13.7323 1.14346 14.3161 1.13581L14.3161 1.13583Z" fill="black"/>
</g>
<defs>
<clipPath id="clip0_78_10">
<rect width="9.84615" height="9.84615" fill="white" transform="translate(9.23077)"/>
</clipPath>
</defs>
</svg>
