<svg width="24" height="24" viewBox="0 0 24 24" fill="none" xmlns="http://www.w3.org/2000/svg">
<path d="M4.764 1H0V3H3.236L5.966 13.011L4.72 18H22V16H7.28L7.78 14H19.72L23.387 3H5.31L4.764 1ZM17 9.5H14.5V12H12.5V9.5H10V7.5H12.5V5H14.5V7.5H17V9.5ZM6 19C5.46957 19 4.96086 19.2107 4.58579 19.5858C4.21071 19.9609 4 20.4696 4 21C4 21.5304 4.21071 22.0391 4.58579 22.4142C4.96086 22.7893 5.46957 23 6 23C6.53043 23 7.03914 22.7893 7.41421 22.4142C7.78929 22.0391 8 21.5304 8 21C8 20.4696 7.78929 19.9609 7.41421 19.5858C7.03914 19.2107 6.53043 19 6 19ZM20 19C19.4696 19 18.9609 19.2107 18.5858 19.5858C18.2107 19.9609 18 20.4696 18 21C18 21.5304 18.2107 22.0391 18.5858 22.4142C18.9609 22.7893 19.4696 23 20 23C20.5304 23 21.0391 22.7893 21.4142 22.4142C21.7893 22.0391 22 21.5304 22 21C22 20.4696 21.7893 19.9609 21.4142 19.5858C21.0391 19.2107 20.5304 19 20 19Z" fill="black"/>
</svg>
